<?xml version="1.0" encoding="UTF-8" standalone="no"?><svg xmlns="http://www.w3.org/2000/svg" xmlns:xlink="http://www.w3.org/1999/xlink" contentScriptType="application/ecmascript" contentStyleType="text/css" height="705.1635px" preserveAspectRatio="none" style="width:851px;height:705px;background:#FFFFFF;" version="1.1" viewBox="0 0 851 705" width="851.463px" zoomAndPan="magnify"><defs><filter height="300%" id="fl5yoky04uua5" width="300%" x="-1" y="-1"><feGaussianBlur result="blurOut" stdDeviation="1.1703958691910499"/><feColorMatrix in="blurOut" result="blurOut2" type="matrix" values="0 0 0 0 0 0 0 0 0 0 0 0 0 0 0 0 0 0 .4 0"/><feOffset dx="2.3407917383820998" dy="2.3407917383820998" in="blurOut2" result="blurOut3"/><feBlend in="SourceGraphic" in2="blurOut3" mode="normal"/></filter></defs><g><ellipse cx="566.179" cy="9.3632" fill="#000000" filter="url(#fl5yoky04uua5)" rx="5.852" ry="5.852" style="stroke:none;stroke-width:0.5851979345955249;"/><g id="onCreate"><rect fill="#FEFECE" filter="url(#fl5yoky04uua5)" height="29.2599" rx="7.315" ry="7.315" style="stroke:#A80036;stroke-width:0.8777969018932874;" width="50.9122" x="540.7229" y="50.9122"/><line style="stroke:#A80036;stroke-width:0.8777969018932874;" x1="540.7229" x2="591.6351" y1="66.3011" y2="66.3011"/><text fill="#000000" font-family="sans-serif" font-size="8.1928" lengthAdjust="spacing" textLength="39.2083" x="546.5749" y="61.4429">onCreate</text></g><path d="M612.4096,58.2272 L612.4096,63.2014 L591.6878,65.5422 L612.4096,67.883 L612.4096,72.9349 A0,0 0 0 0 612.4096,72.9349 L846.4888,72.9349 A0,0 0 0 0 846.4888,72.9349 L846.4888,64.0792 L840.6368,58.2272 L612.4096,58.2272 A0,0 0 0 0 612.4096,58.2272 " fill="#FBFB77" filter="url(#fl5yoky04uua5)" style="stroke:#A80036;stroke-width:0.5851979345955249;"/><path d="M840.6368,58.2272 L840.6368,64.0792 L846.4888,64.0792 L840.6368,58.2272 " fill="#FBFB77" style="stroke:#A80036;stroke-width:0.5851979345955249;"/><text fill="#000000" font-family="sans-serif" font-size="7.6076" lengthAdjust="spacing" textLength="221.79" x="615.9208" y="68.2147">must call setContentView to define activity's user interface</text><g id="onStart"><rect fill="#FEFECE" filter="url(#fl5yoky04uua5)" height="29.2599" rx="7.315" ry="7.315" style="stroke:#A80036;stroke-width:0.8777969018932874;" width="43.8898" x="544.2341" y="161.5146"/><line style="stroke:#A80036;stroke-width:0.8777969018932874;" x1="544.2341" x2="588.1239" y1="176.9035" y2="176.9035"/><text fill="#000000" font-family="sans-serif" font-size="8.1928" lengthAdjust="spacing" textLength="32.1859" x="550.0861" y="172.0453">onStart</text></g><path d="M608.8985,168.8296 L608.8985,173.8038 L588.2334,176.1446 L608.8985,178.4854 L608.8985,183.5373 A0,0 0 0 0 608.8985,183.5373 L826.5921,183.5373 A0,0 0 0 0 826.5921,183.5373 L826.5921,174.6816 L820.7401,168.8296 L608.8985,168.8296 A0,0 0 0 0 608.8985,168.8296 " fill="#FBFB77" filter="url(#fl5yoky04uua5)" style="stroke:#A80036;stroke-width:0.5851979345955249;"/><path d="M820.7401,168.8296 L820.7401,174.6816 L826.5921,174.6816 L820.7401,168.8296 " fill="#FBFB77" style="stroke:#A80036;stroke-width:0.5851979345955249;"/><text fill="#000000" font-family="sans-serif" font-size="7.6076" lengthAdjust="spacing" textLength="205.4045" x="612.4096" y="178.8171">preparations for become to foreground and interactive</text><g id="onResume"><rect fill="#FEFECE" filter="url(#fl5yoky04uua5)" height="29.2599" rx="7.315" ry="7.315" style="stroke:#A80036;stroke-width:0.8777969018932874;" width="55.5938" x="372.1859" y="262.7539"/><line style="stroke:#A80036;stroke-width:0.8777969018932874;" x1="372.1859" x2="427.7797" y1="278.1427" y2="278.1427"/><text fill="#000000" font-family="sans-serif" font-size="8.1928" lengthAdjust="spacing" textLength="43.8898" x="378.0379" y="273.2846">onResume</text></g><path d="M8.4854,270.0688 L8.4854,284.7765 L180.5336,284.7765 L180.5336,275.9208 L174.6816,270.0688 L8.4854,270.0688 " fill="#FBFB77" filter="url(#fl5yoky04uua5)" style="stroke:#A80036;stroke-width:0.5851979345955249;"/><path d="M174.6816,270.0688 L174.6816,275.9208 L180.5336,275.9208 L174.6816,270.0688 " fill="#FBFB77" style="stroke:#A80036;stroke-width:0.5851979345955249;"/><text fill="#000000" font-family="sans-serif" font-size="7.6076" lengthAdjust="spacing" textLength="159.759" x="11.9966" y="280.0564">call just before activity interracts with user</text><path d="M201.3081,270.0688 L201.3081,284.7765 A0,0 0 0 0 201.3081,284.7765 L351.704,284.7765 A0,0 0 0 0 351.704,284.7765 L351.704,280.6024 L372.0981,277.3838 L351.704,275.9208 L351.704,275.9208 L345.852,270.0688 L201.3081,270.0688 A0,0 0 0 0 201.3081,270.0688 " fill="#FBFB77" filter="url(#fl5yoky04uua5)" style="stroke:#A80036;stroke-width:0.5851979345955249;"/><path d="M345.852,270.0688 L345.852,275.9208 L351.704,275.9208 L345.852,270.0688 " fill="#FBFB77" style="stroke:#A80036;stroke-width:0.5851979345955249;"/><text fill="#000000" font-family="sans-serif" font-size="7.6076" lengthAdjust="spacing" textLength="138.1067" x="204.8193" y="280.0564">activity now on top of activitys stack</text><g id="onPause"><rect fill="#FEFECE" filter="url(#fl5yoky04uua5)" height="29.2599" rx="7.315" ry="7.315" style="stroke:#A80036;stroke-width:0.8777969018932874;" width="46.2306" x="351.1188" y="373.3563"/><line style="stroke:#A80036;stroke-width:0.8777969018932874;" x1="351.1188" x2="397.3494" y1="388.7452" y2="388.7452"/><text fill="#000000" font-family="sans-serif" font-size="8.1928" lengthAdjust="spacing" textLength="34.5267" x="356.9707" y="383.887">onPause</text></g><path d="M3.5112,380.6713 L3.5112,395.3789 L67.2978,395.3789 L67.2978,386.5232 L61.4458,380.6713 L3.5112,380.6713 " fill="#FBFB77" filter="url(#fl5yoky04uua5)" style="stroke:#A80036;stroke-width:0.5851979345955249;"/><path d="M61.4458,380.6713 L61.4458,386.5232 L67.2978,386.5232 L61.4458,380.6713 " fill="#FBFB77" style="stroke:#A80036;stroke-width:0.5851979345955249;"/><text fill="#000000" font-family="sans-serif" font-size="7.6076" lengthAdjust="spacing" textLength="51.4974" x="7.0224" y="390.6588">can update UI</text><path d="M87.7797,380.6713 L87.7797,395.3789 A0,0 0 0 0 87.7797,395.3789 L330.6368,395.3789 A0,0 0 0 0 330.6368,395.3789 L330.6368,391.2048 L351.1182,387.9862 L330.6368,386.5232 L330.6368,386.5232 L324.7849,380.6713 L87.7797,380.6713 A0,0 0 0 0 87.7797,380.6713 " fill="#FBFB77" filter="url(#fl5yoky04uua5)" style="stroke:#A80036;stroke-width:0.5851979345955249;"/><path d="M324.7849,380.6713 L324.7849,386.5232 L330.6368,386.5232 L324.7849,380.6713 " fill="#FBFB77" style="stroke:#A80036;stroke-width:0.5851979345955249;"/><text fill="#000000" font-family="sans-serif" font-size="7.6076" lengthAdjust="spacing" textLength="230.568" x="91.2909" y="390.6588">not use to save user data, network call, database transaction</text><g id="onStop"><rect fill="#FEFECE" filter="url(#fl5yoky04uua5)" height="29.2599" rx="7.315" ry="7.315" style="stroke:#A80036;stroke-width:0.8777969018932874;" width="42.7194" x="352.8744" y="483.9587"/><line style="stroke:#A80036;stroke-width:0.8777969018932874;" x1="352.8744" x2="395.5938" y1="499.3476" y2="499.3476"/><text fill="#000000" font-family="sans-serif" font-size="8.1928" lengthAdjust="spacing" textLength="31.0155" x="358.7263" y="494.4894">onStop</text></g><g id="onRestart"><rect fill="#FEFECE" filter="url(#fl5yoky04uua5)" height="29.2599" rx="7.315" ry="7.315" style="stroke:#A80036;stroke-width:0.8777969018932874;" width="53.8382" x="594.8537" y="585.1979"/><line style="stroke:#A80036;stroke-width:0.8777969018932874;" x1="594.8537" x2="648.6919" y1="600.5868" y2="600.5868"/><text fill="#000000" font-family="sans-serif" font-size="8.1928" lengthAdjust="spacing" textLength="42.1343" x="600.7057" y="595.7286">onRestart</text></g><path d="M669.4664,592.5129 L669.4664,597.4871 L648.8499,599.8279 L669.4664,602.1687 L669.4664,607.2206 A0,0 0 0 0 669.4664,607.2206 L760.1721,607.2206 A0,0 0 0 0 760.1721,607.2206 L760.1721,598.3649 L754.3201,592.5129 L669.4664,592.5129 A0,0 0 0 0 669.4664,592.5129 " fill="#FBFB77" filter="url(#fl5yoky04uua5)" style="stroke:#A80036;stroke-width:0.5851979345955249;"/><path d="M754.3201,592.5129 L754.3201,598.3649 L760.1721,598.3649 L754.3201,592.5129 " fill="#FBFB77" style="stroke:#A80036;stroke-width:0.5851979345955249;"/><text fill="#000000" font-family="sans-serif" font-size="7.6076" lengthAdjust="spacing" textLength="78.4165" x="672.9776" y="602.5004">restore activity state</text><g id="onDestroy"><rect fill="#FEFECE" filter="url(#fl5yoky04uua5)" height="29.2599" rx="7.315" ry="7.315" style="stroke:#A80036;stroke-width:0.8777969018932874;" width="55.5938" x="316.0069" y="585.1979"/><line style="stroke:#A80036;stroke-width:0.8777969018932874;" x1="316.0069" x2="371.6007" y1="600.5868" y2="600.5868"/><text fill="#000000" font-family="sans-serif" font-size="8.1928" lengthAdjust="spacing" textLength="43.8898" x="321.8589" y="595.7286">onDestroy</text></g><path d="M392.0826,592.5129 L392.0826,597.4871 L371.6089,599.8279 L392.0826,602.1687 L392.0826,607.2206 A0,0 0 0 0 392.0826,607.2206 L474.5955,607.2206 A0,0 0 0 0 474.5955,607.2206 L474.5955,598.3649 L468.7435,592.5129 L392.0826,592.5129 A0,0 0 0 0 392.0826,592.5129 " fill="#FBFB77" filter="url(#fl5yoky04uua5)" style="stroke:#A80036;stroke-width:0.5851979345955249;"/><path d="M468.7435,592.5129 L468.7435,598.3649 L474.5955,598.3649 L468.7435,592.5129 " fill="#FBFB77" style="stroke:#A80036;stroke-width:0.5851979345955249;"/><text fill="#000000" font-family="sans-serif" font-size="7.6076" lengthAdjust="spacing" textLength="70.2238" x="395.5938" y="602.5004">call before destroy</text><path d="M495.0775,592.5129 L495.0775,607.2206 L574.0792,607.2206 L574.0792,598.3649 L568.2272,592.5129 L495.0775,592.5129 " fill="#FBFB77" filter="url(#fl5yoky04uua5)" style="stroke:#A80036;stroke-width:0.5851979345955249;"/><path d="M568.2272,592.5129 L568.2272,598.3649 L574.0792,598.3649 L568.2272,592.5129 " fill="#FBFB77" style="stroke:#A80036;stroke-width:0.5851979345955249;"/><text fill="#000000" font-family="sans-serif" font-size="7.6076" lengthAdjust="spacing" textLength="66.7126" x="498.5886" y="602.5004">release resources</text><ellipse cx="343.8038" cy="692.2892" filter="url(#fl5yoky04uua5)" rx="5.852" ry="5.852" style="stroke:#000000;stroke-width:0.5851979345955249;fill:none;"/><ellipse cx="344.0964" cy="692.5818" fill="#000000" rx="3.5112" ry="3.5112" style="stroke:none;stroke-width:0.5851979345955249;"/><!--MD5=[d31243b851795c0174eb8083fc384ce4]
link *start to onCreate--><path d="M566.179,15.221 C566.179,22.6472 566.179,36.5222 566.179,47.7346 " fill="none" id="*start-to-onCreate" style="stroke:#A80036;stroke-width:0.5851979345955249;"/><polygon fill="#A80036" points="566.179,50.8186,568.5198,45.5518,566.179,47.8926,563.8382,45.5518,566.179,50.8186" style="stroke:#A80036;stroke-width:0.5851979345955249;"/><!--MD5=[4437cd87ff8247995f04f5714780cdfb]
link onCreate to onStart--><path d="M552.2817,80.2131 C542.4469,91.9229 531.7565,109.2916 536.3339,125.8176 C539.6514,137.7942 546.7048,149.782 553.1221,158.9877 " fill="none" id="onCreate-to-onStart" style="stroke:#A80036;stroke-width:0.5851979345955249;"/><polygon fill="#A80036" points="554.9116,161.5082,553.7716,155.8585,553.2179,159.1223,549.9541,158.5685,554.9116,161.5082" style="stroke:#A80036;stroke-width:0.5851979345955249;"/><text fill="#000000" font-family="sans-serif" font-size="7.6076" lengthAdjust="spacing" textLength="49.1566" x="536.9191" y="123.5159">Started state</text><!--MD5=[4437cd87ff8247995f04f5714780cdfb]
link onCreate to onStart--><path d="M576.6564,80.2306 C584.2195,92.0985 592.5305,109.6661 589.0017,125.8176 C586.5023,137.2582 581.1197,149.2126 576.2093,158.5336 " fill="none" id="onCreate-to-onStart-1" style="stroke:#A80036;stroke-width:0.5851979345955249;"/><polygon fill="#A80036" points="574.7042,161.3385,579.2572,157.8046,576.0877,158.7603,575.132,155.5909,574.7042,161.3385" style="stroke:#A80036;stroke-width:0.5851979345955249;"/><text fill="#000000" font-family="sans-serif" font-size="7.6076" lengthAdjust="spacing" textLength="67.2978" x="590.7573" y="123.5159">Visible to the user</text><!--MD5=[11f9400988dff6e69ae318fe091c7f4c]
link onStart to onResume--><path d="M544.1094,190.0179 C513.6206,208.3755 458.7039,241.4415 426.1745,261.0281 " fill="none" id="onStart-to-onResume" style="stroke:#A80036;stroke-width:0.5851979345955249;"/><polygon fill="#A80036" points="423.4855,262.6474,429.205,261.9362,425.9922,261.1381,426.7902,257.9254,423.4855,262.6474" style="stroke:#A80036;stroke-width:0.5851979345955249;"/><!--MD5=[487d7f2a38423ea943e92f4d844b1de5]
link GMN20279 to onResume--><path d="M112.5634,270.0571 C155.1565,253.8477 264.8547,218.4111 351.704,244.9053 C363.2985,248.4423 374.6314,255.8 383.4,262.6187 " fill="none" id="GMN20279-onResume" style="stroke:#A80036;stroke-width:0.5851979345955249;stroke-dasharray:7.0,7.0;"/><!--MD5=[65fc29936d6b5a09ea9001497528757c]
link onResume to onPause--><path d="M396.6694,292.0512 C391.9697,312.0234 383.3772,348.5439 378.2983,370.1272 " fill="none" id="onResume-to-onPause" style="stroke:#A80036;stroke-width:0.5851979345955249;"/><polygon fill="#A80036" points="377.5756,373.1994,381.0609,368.6091,378.246,370.3513,376.5038,367.5364,377.5756,373.1994" style="stroke:#A80036;stroke-width:0.5851979345955249;"/><text fill="#000000" font-family="sans-serif" font-size="7.6076" lengthAdjust="spacing" textLength="189.6041" x="388.864" y="335.3576">loses focus / user leaving activity / particual visible</text><!--MD5=[13401fc9d4b39726bd1bfb5bb2229645]
link onPause to onResume--><path d="M375.2787,373.2744 C375.7573,367.6448 376.3911,361.1128 377.1601,355.2151 C378.7629,342.919 378.7161,339.7103 381.8417,327.7108 C383.9981,319.432 385.3628,317.6127 388.2788,309.5697 C389.9964,304.8325 391.8831,299.7062 393.6305,294.9889 " fill="none" id="onPause-to-onResume" style="stroke:#A80036;stroke-width:0.5851979345955249;"/><polygon fill="#A80036" points="394.6979,292.1115,390.6709,296.2348,393.6798,294.8547,395.0599,297.8636,394.6979,292.1115" style="stroke:#A80036;stroke-width:0.5851979345955249;"/><!--MD5=[8035fa11fd8339263ab9611beda94250]
link GMN20288 to onPause--><path d="M43.9395,380.5706 C53.7472,372.5856 70.6983,360.3743 87.7797,355.5077 C139.6827,340.721 279.4104,338.5241 330.6368,355.5077 C341.3875,359.0722 351.639,366.431 359.497,373.2445 " fill="none" id="GMN20288-onPause" style="stroke:#A80036;stroke-width:0.5851979345955249;stroke-dasharray:7.0,7.0;"/><!--MD5=[a904d8f264e0cd932b076c19e95c4d96]
link onPause to onStop--><path d="M374.2341,402.6536 C374.2341,422.6259 374.2341,459.1463 374.2341,480.7296 " fill="none" id="onPause-to-onStop" style="stroke:#A80036;stroke-width:0.5851979345955249;"/><polygon fill="#A80036" points="374.2341,483.8019,376.5749,478.5351,374.2341,480.8759,371.8933,478.5351,374.2341,483.8019" style="stroke:#A80036;stroke-width:0.5851979345955249;"/><text fill="#000000" font-family="sans-serif" font-size="7.6076" lengthAdjust="spacing" textLength="63.7866" x="374.8193" y="445.96">no visible to user</text><!--MD5=[1378235e12bfe33048717e1f1ccadb95]
link onStop to onRestart--><path d="M395.7688,507.8792 C440.0413,525.7769 541.3567,566.7344 591.9219,587.1753 " fill="none" id="onStop-to-onRestart" style="stroke:#A80036;stroke-width:0.5851979345955249;"/><polygon fill="#A80036" points="594.7367,588.3124,590.7291,584.1702,592.0234,587.217,588.9766,588.5114,594.7367,588.3124" style="stroke:#A80036;stroke-width:0.5851979345955249;"/><!--MD5=[2988cc45c73cfc47cc1329e6245556af]
link onRestart to onStart--><path d="M621.7728,585.092 C621.7728,575.1378 621.7728,561.5044 621.7728,549.5009 C621.7728,226.4716 621.7728,226.4716 621.7728,226.4716 C621.7728,208.671 605.7501,195.6463 590.9036,187.3997 " fill="none" id="onRestart-to-onStart" style="stroke:#A80036;stroke-width:0.5851979345955249;"/><polygon fill="#A80036" points="588.1514,185.9156,591.6778,190.4745,590.7273,187.3035,593.8983,186.3531,588.1514,185.9156" style="stroke:#A80036;stroke-width:0.5851979345955249;"/><!--MD5=[c37275e434a5850834502e9c3473a52c]
link onStop to onDestroy--><path d="M369.9387,513.2988 C364.4338,531.4024 354.8974,562.7614 348.9927,582.1795 " fill="none" id="onStop-to-onDestroy" style="stroke:#A80036;stroke-width:0.5851979345955249;"/><polygon fill="#A80036" points="348.0775,585.1892,351.85,580.8318,348.9292,582.3899,347.3712,579.4691,348.0775,585.1892" style="stroke:#A80036;stroke-width:0.5851979345955249;"/><!--MD5=[7b444fbf7823e8cba721de527022cea0]
link onDestroy to GMN20307--><path d="M360.3865,585.0628 C369.1551,578.244 380.4881,570.8863 392.0826,567.3494 C427.1594,556.6491 439.0465,558.3426 474.5955,567.3494 C493.6513,572.1773 513.2151,584.4003 524.6159,592.3976 " fill="none" id="onDestroy-GMN20307" style="stroke:#A80036;stroke-width:0.5851979345955249;stroke-dasharray:7.0,7.0;"/><!--MD5=[a253dc8889530fcd4536c8dec5a327c0]
link onDestroy to *end--><path d="M343.8038,614.4771 C343.8038,633.7149 343.8038,667.6331 343.8038,683.3169 " fill="none" id="onDestroy-to-*end" style="stroke:#A80036;stroke-width:0.5851979345955249;"/><polygon fill="#A80036" points="343.8038,686.375,346.1446,681.1082,343.8038,683.449,341.463,681.1082,343.8038,686.375" style="stroke:#A80036;stroke-width:0.5851979345955249;"/><!--MD5=[ee301f1362405f74c8299d359f3bcaba]
@startuml
scale 850 width
[*] - -> onCreate 

note right of onCreate: must call setContentView to define activity's user interface

onCreate - - -> onStart : Started state
onCreate - - -> onStart : Visible to the user

note right of onStart: preparations for become to foreground and interactive

onStart - - -> onResume

note left of onResume: call just before activity interracts with user
note left of onResume: activity now on top of activitys stack

onResume - - -> onPause: loses focus / user leaving activity / particual visible
onPause - - -> onResume

note left of onPause: can update UI
note left of onPause: not use to save user data, network call, database transaction

onPause - - -> onStop: no visible to user

onStop - - -> onRestart

note right of onRestart: restore activity state

onRestart - - -> onStart

onStop - - -> onDestroy
note right of onDestroy: call before destroy
note right of onDestroy: release resources

onDestroy - - -> [*]
@enduml

PlantUML version 1.2021.16beta3(Unknown compile time)
(GPL source distribution)
Java Runtime: Java(TM) SE Runtime Environment
JVM: Java HotSpot(TM) 64-Bit Server VM
Default Encoding: UTF-8
Language: en
Country: US
--></g></svg>