<?xml version="1.0" encoding="UTF-8" standalone="no"?><svg xmlns="http://www.w3.org/2000/svg" xmlns:xlink="http://www.w3.org/1999/xlink" contentScriptType="application/ecmascript" contentStyleType="text/css" height="893px" preserveAspectRatio="none" style="width:1075px;height:893px;background:#FFFFFF;" version="1.1" viewBox="0 0 1075 893" width="1075px" zoomAndPan="magnify"><defs><filter height="300%" id="f4ss19zhirz5b" width="300%" x="-1" y="-1"><feGaussianBlur result="blurOut" stdDeviation="2.0"/><feColorMatrix in="blurOut" result="blurOut2" type="matrix" values="0 0 0 0 0 0 0 0 0 0 0 0 0 0 0 0 0 0 .4 0"/><feOffset dx="4.0" dy="4.0" in="blurOut2" result="blurOut3"/><feBlend in="SourceGraphic" in2="blurOut3" mode="normal"/></filter></defs><g><!--MD5=[deccda364e2dc1e4d1fcadf337e64eea]
cluster onCreate--><rect fill="#008000" filter="url(#f4ss19zhirz5b)" height="122" rx="12.5" ry="12.5" style="stroke:#A80036;stroke-width:1.5;" width="393" x="413.8812" y="525"/><rect fill="#FFFFFF" height="89.7031" rx="12.5" ry="12.5" style="stroke:#FFFFFF;stroke-width:1.0;" width="387" x="416.8812" y="554.2969"/><line style="stroke:#A80036;stroke-width:1.5;" x1="413.8812" x2="806.8812" y1="551.2969" y2="551.2969"/><text fill="#000000" font-family="sans-serif" font-size="14" lengthAdjust="spacing" textLength="67" x="576.8812" y="541.9951">onCreate</text><!--MD5=[0269d0fce3be858c5b8e2d9583b53864]
cluster onStart--><rect fill="#FEFECE" filter="url(#f4ss19zhirz5b)" height="107" rx="12.5" ry="12.5" style="stroke:#A80036;stroke-width:1.5;" width="285" x="185.8812" y="774"/><rect fill="#FFFFFF" height="74.7031" rx="12.5" ry="12.5" style="stroke:#FFFFFF;stroke-width:1.0;" width="279" x="188.8812" y="803.2969"/><line style="stroke:#A80036;stroke-width:1.5;" x1="185.8812" x2="470.8812" y1="800.2969" y2="800.2969"/><text fill="#000000" font-family="sans-serif" font-size="14" lengthAdjust="spacing" textLength="55" x="300.8812" y="790.9951">onStart</text><!--MD5=[52abeea173f8e83e2967259d5c2f65c2]
cluster onResume--><rect fill="#FEFECE" filter="url(#f4ss19zhirz5b)" height="107" rx="12.5" ry="12.5" style="stroke:#A80036;stroke-width:1.5;" width="371" x="10.8812" y="272"/><rect fill="#FFFFFF" height="74.7031" rx="12.5" ry="12.5" style="stroke:#FFFFFF;stroke-width:1.0;" width="365" x="13.8812" y="301.2969"/><line style="stroke:#A80036;stroke-width:1.5;" x1="10.8812" x2="381.8812" y1="298.2969" y2="298.2969"/><text fill="#000000" font-family="sans-serif" font-size="14" lengthAdjust="spacing" textLength="75" x="158.8812" y="288.9951">onResume</text><!--MD5=[ee431dd8d5fd235a95bc7c30dbf2858f]
cluster onPause--><rect fill="#FEFECE" filter="url(#f4ss19zhirz5b)" height="138" rx="12.5" ry="12.5" style="stroke:#A80036;stroke-width:1.5;" width="267" x="38.8812" y="7"/><rect fill="#FFFFFF" height="105.7031" rx="12.5" ry="12.5" style="stroke:#FFFFFF;stroke-width:1.0;" width="261" x="41.8812" y="36.2969"/><line style="stroke:#A80036;stroke-width:1.5;" x1="38.8812" x2="305.8812" y1="33.2969" y2="33.2969"/><text fill="#000000" font-family="sans-serif" font-size="14" lengthAdjust="spacing" textLength="59" x="142.8812" y="23.9951">onPause</text><!--MD5=[6721d06b15ed7ccf006d793193141e94]
cluster onRestart--><rect fill="#FEFECE" filter="url(#f4ss19zhirz5b)" height="92" rx="12.5" ry="12.5" style="stroke:#A80036;stroke-width:1.5;" width="223" x="144.8812" y="540"/><rect fill="#FFFFFF" height="59.7031" rx="12.5" ry="12.5" style="stroke:#FFFFFF;stroke-width:1.0;" width="217" x="147.8812" y="569.2969"/><line style="stroke:#A80036;stroke-width:1.5;" x1="144.8812" x2="367.8812" y1="566.2969" y2="566.2969"/><text fill="#000000" font-family="sans-serif" font-size="14" lengthAdjust="spacing" textLength="72" x="220.3812" y="556.9951">onRestart</text><!--MD5=[ce3eb9d547ffb7d4897baceb151e244d]
cluster onDestroy--><rect fill="#FF0000" filter="url(#f4ss19zhirz5b)" height="107" rx="12.5" ry="12.5" style="stroke:#A80036;stroke-width:1.5;" width="217" x="846.8812" y="532.5"/><rect fill="#FFFFFF" height="74.7031" rx="12.5" ry="12.5" style="stroke:#FFFFFF;stroke-width:1.0;" width="211" x="849.8812" y="561.7969"/><line style="stroke:#A80036;stroke-width:1.5;" x1="846.8812" x2="1063.8812" y1="558.7969" y2="558.7969"/><text fill="#000000" font-family="sans-serif" font-size="14" lengthAdjust="spacing" textLength="75" x="917.8812" y="549.4951">onDestroy</text><path d="M457.3812,568 L457.3812,623.3984 L782.3812,623.3984 L782.3812,578 L772.3812,568 L457.3812,568 " fill="#FBFB77" filter="url(#f4ss19zhirz5b)" style="stroke:#A80036;stroke-width:1.0;"/><path d="M772.3812,568 L772.3812,578 L782.3812,578 L772.3812,568 " fill="#FBFB77" style="stroke:#A80036;stroke-width:1.0;"/><text fill="#000000" font-family="sans-serif" font-size="13" lengthAdjust="spacing" textLength="173" x="463.3812" y="585.0669">- must call setContentView</text><text fill="#000000" font-family="sans-serif" font-size="13" lengthAdjust="spacing" textLength="211" x="463.3812" y="600.1997">to define activity's user interface</text><text fill="#000000" font-family="sans-serif" font-size="13" lengthAdjust="spacing" textLength="304" x="463.3812" y="615.3325">- restore previous app state from saved bundle</text><path d="M228.8812,817 L228.8812,857.2656 L446.8812,857.2656 L446.8812,827 L436.8812,817 L228.8812,817 " fill="#FBFB77" filter="url(#f4ss19zhirz5b)" style="stroke:#A80036;stroke-width:1.0;"/><path d="M436.8812,817 L436.8812,827 L446.8812,827 L436.8812,817 " fill="#FBFB77" style="stroke:#A80036;stroke-width:1.0;"/><text fill="#000000" font-family="sans-serif" font-size="13" lengthAdjust="spacing" textLength="168" x="234.8812" y="834.0669">- preparations for become</text><text fill="#000000" font-family="sans-serif" font-size="13" lengthAdjust="spacing" textLength="197" x="234.8812" y="849.1997">- to foreground and interactive</text><path d="M54.3812,315 L54.3812,355.2656 L357.3812,355.2656 L357.3812,325 L347.3812,315 L54.3812,315 " fill="#FBFB77" filter="url(#f4ss19zhirz5b)" style="stroke:#A80036;stroke-width:1.0;"/><path d="M347.3812,315 L347.3812,325 L357.3812,325 L347.3812,315 " fill="#FBFB77" style="stroke:#A80036;stroke-width:1.0;"/><text fill="#000000" font-family="sans-serif" font-size="13" lengthAdjust="spacing" textLength="282" x="60.3812" y="332.0669">- call just before activity interracts with user</text><text fill="#000000" font-family="sans-serif" font-size="13" lengthAdjust="spacing" textLength="245" x="60.3812" y="347.1997">- activity now on top of activitys stack</text><path d="M82.3812,50 L82.3812,120.5313 L281.3812,120.5313 L281.3812,60 L271.3812,50 L82.3812,50 " fill="#FBFB77" filter="url(#f4ss19zhirz5b)" style="stroke:#A80036;stroke-width:1.0;"/><path d="M271.3812,50 L271.3812,60 L281.3812,60 L271.3812,50 " fill="#FBFB77" style="stroke:#A80036;stroke-width:1.0;"/><text fill="#000000" font-family="sans-serif" font-size="13" lengthAdjust="spacing" textLength="97" x="88.3812" y="67.0669">- can update UI</text><text fill="#000000" font-family="sans-serif" font-size="13" lengthAdjust="spacing" textLength="174" x="88.3812" y="82.1997">- not use to save user data</text><text fill="#000000" font-family="sans-serif" font-size="13" lengthAdjust="spacing" textLength="119" x="88.3812" y="97.3325">- dont network call</text><text fill="#000000" font-family="sans-serif" font-size="13" lengthAdjust="spacing" textLength="178" x="88.3812" y="112.4653">- dont database transaction</text><path d="M188.3812,583 L188.3812,608.1328 L343.3812,608.1328 L343.3812,593 L333.3812,583 L188.3812,583 " fill="#FBFB77" filter="url(#f4ss19zhirz5b)" style="stroke:#A80036;stroke-width:1.0;"/><path d="M333.3812,583 L333.3812,593 L343.3812,593 L333.3812,583 " fill="#FBFB77" style="stroke:#A80036;stroke-width:1.0;"/><text fill="#000000" font-family="sans-serif" font-size="13" lengthAdjust="spacing" textLength="134" x="194.3812" y="600.0669">restore activity state</text><path d="M889.8812,575.5 L889.8812,615.7656 L1039.8812,615.7656 L1039.8812,585.5 L1029.8812,575.5 L889.8812,575.5 " fill="#FBFB77" filter="url(#f4ss19zhirz5b)" style="stroke:#A80036;stroke-width:1.0;"/><path d="M1029.8812,575.5 L1029.8812,585.5 L1039.8812,585.5 L1029.8812,575.5 " fill="#FBFB77" style="stroke:#A80036;stroke-width:1.0;"/><text fill="#000000" font-family="sans-serif" font-size="13" lengthAdjust="spacing" textLength="129" x="895.8812" y="592.5669">- call before destroy</text><text fill="#000000" font-family="sans-serif" font-size="13" lengthAdjust="spacing" textLength="123" x="895.8812" y="607.6997">- release resources</text><ellipse cx="582.8812" cy="444" fill="#000000" filter="url(#f4ss19zhirz5b)" rx="10" ry="10" style="stroke:none;stroke-width:1.0;"/><g id="onStop"><rect fill="#FEFECE" filter="url(#f4ss19zhirz5b)" height="50" rx="12.5" ry="12.5" style="stroke:#A80036;stroke-width:1.5;" width="73" x="406.3812" y="310"/><line style="stroke:#A80036;stroke-width:1.5;" x1="406.3812" x2="479.3812" y1="336.2969" y2="336.2969"/><text fill="#000000" font-family="sans-serif" font-size="14" lengthAdjust="spacing" textLength="53" x="416.3812" y="327.9951">onStop</text></g><ellipse cx="854.8812" cy="837" filter="url(#f4ss19zhirz5b)" rx="10" ry="10" style="stroke:#000000;stroke-width:1.0;fill:none;"/><ellipse cx="855.3812" cy="837.5" fill="#000000" rx="6" ry="6" style="stroke:none;stroke-width:1.0;"/><!--MD5=[d31243b851795c0174eb8083fc384ce4]
link *start to onCreate--><path d="M573.3422,448.052 C544.4822,457.467 458.9712,486.766 440.8812,509 C437.9062,512.6564 435.3731,516.681 433.2185,520.931 C432.6799,521.9935 432.1649,523.0701 431.6725,524.1585 C431.5494,524.4306 431.4278,524.7035 431.3075,524.9771 " fill="none" id="*start-to-onCreate" style="stroke:#A80036;stroke-width:1.0;"/><polygon fill="#A80036" points="431.3075,524.9771,438.5914,518.3479,433.3198,520.3999,431.2678,515.1283,431.3075,524.9771" style="stroke:#A80036;stroke-width:1.0;"/><text fill="#000000" font-family="sans-serif" font-size="13" lengthAdjust="spacing" textLength="110" x="477.8812" y="497.0669">Activity launched</text><!--MD5=[db9c28f78e9db5026f1277f293500366]
link onCreate to GMN34026--><path d="M422.2682,595.5 C433.8472,595.5 445.4262,595.5 457.0042,595.5 " fill="none" id="onCreate-GMN34026" style="stroke:#A80036;stroke-width:1.0;stroke-dasharray:7.0,7.0;"/><!--MD5=[4437cd87ff8247995f04f5714780cdfb]
link onCreate to onStart--><path d="M413.7925,629.8706 C413.738,630.0509 413.6832,630.2317 413.628,630.4129 C413.1868,631.8627 412.7254,633.3414 412.2434,634.8451 C411.2794,637.8527 410.2327,640.9607 409.099,644.1398 C400.029,669.5723 385.3847,699.5515 362.8812,719 C327.9972,749.148 308.7792,739.51 263.8812,750 C252.7102,752.61 221.3242,750.233 212.8812,758 C209.7015,760.9253 207.0132,764.2858 204.744,767.9334 C203.6094,769.7571 202.5796,771.6527 201.6455,773.6014 C201.5871,773.7232 201.5291,773.8452 201.4715,773.9674 " fill="none" id="onCreate-to-onStart" style="stroke:#A80036;stroke-width:1.0;"/><polygon fill="#A80036" points="201.4715,773.9674,208.9284,767.5335,203.6043,769.4451,201.6928,764.121,201.4715,773.9674" style="stroke:#A80036;stroke-width:1.0;"/><text fill="#000000" font-family="sans-serif" font-size="13" lengthAdjust="spacing" textLength="84" x="379.8812" y="715.0669">Started state</text><!--MD5=[4437cd87ff8247995f04f5714780cdfb]
link onCreate to onStart--><path d="M413.7245,608.4732 C413.6042,608.64 413.4827,608.808 413.3601,608.9774 C412.3789,610.332 411.322,611.7678 410.1942,613.2696 C407.9385,616.2731 405.3992,619.5405 402.6146,622.9509 C391.4762,636.5925 376.4132,652.522 359.8812,663 C311.8002,693.474 280.2942,664.031 237.8812,702 C226.3877,712.289 217.8865,725.6292 211.6008,739.8957 C208.458,747.029 205.869,754.3938 203.7369,761.7246 C202.6708,765.39 201.7189,769.0469 200.8691,772.6621 C200.816,772.8881 200.7633,773.1139 200.7109,773.3395 " fill="none" id="onCreate-to-onStart-1" style="stroke:#A80036;stroke-width:1.0;"/><polygon fill="#A80036" points="200.7109,773.3395,206.6406,765.4757,201.8404,768.4687,198.8474,763.6685,200.7109,773.3395" style="stroke:#A80036;stroke-width:1.0;"/><text fill="#000000" font-family="sans-serif" font-size="13" lengthAdjust="spacing" textLength="115" x="238.8812" y="715.0669">Visible to the user</text><!--MD5=[8f06f4a5ad1c535f79f2f99c31aa98af]
link onStart to GMN34032--><path d="M194.4432,837 C205.8362,837 217.2292,837 228.6222,837 " fill="none" id="onStart-GMN34032" style="stroke:#A80036;stroke-width:1.0;stroke-dasharray:7.0,7.0;"/><!--MD5=[11f9400988dff6e69ae318fe091c7f4c]
link onStart to onResume--><path d="M185.7662,833.8722 C181.2101,832.6008 174.9581,830.7485 167.5877,828.2853 C152.8469,823.3588 133.6326,815.9888 114.565,805.9355 C76.4297,785.829 38.8812,754.9895 38.8812,711.5 C38.8812,443 38.8812,443 38.8812,443 C38.8812,431.0943 37.67,418.5682 35.8437,406.4482 C34.9305,400.3882 33.8636,394.4297 32.7174,388.701 C32.1443,385.8366 31.5514,383.0297 30.948,380.2963 C30.8725,379.9547 30.797,379.6141 30.7212,379.2748 " fill="none" id="onStart-to-onResume" style="stroke:#A80036;stroke-width:1.0;"/><polygon fill="#A80036" points="30.7212,379.2748,28.7777,388.93,31.8103,384.1547,36.5856,387.1874,30.7212,379.2748" style="stroke:#A80036;stroke-width:1.0;"/><!--MD5=[124f64fc99c2bfc09e09bae3216e443d]
link GMN34037 to onResume--><path d="M54.2405,335 C42.5758,335 30.9111,335 19.2464,335 " fill="none" id="GMN34037-onResume" style="stroke:#A80036;stroke-width:1.0;stroke-dasharray:7.0,7.0;"/><!--MD5=[65fc29936d6b5a09ea9001497528757c]
link onResume to onPause--><path d="M25.9024,271.9383 C25.9497,271.5194 25.9973,271.0993 26.0449,270.6779 C26.2356,268.9925 26.4285,267.2872 26.6235,265.564 C27.0134,262.1174 27.4115,258.5987 27.8161,255.0224 C29.4344,240.7172 31.1572,225.4894 32.8799,210.2614 C34.6027,195.0333 36.3255,179.8051 37.944,165.499 C38.3486,161.9224 38.7467,158.4035 39.1366,154.9567 C39.3316,153.2332 39.5245,151.5278 39.7152,149.8422 C39.8106,148.9994 39.9054,148.1616 39.9996,147.3289 C40.0467,146.9126 40.0936,146.4975 40.1404,146.0838 C40.1638,145.877 40.1872,145.6704 40.2105,145.4642 " fill="none" id="onResume-to-onPause" style="stroke:#A80036;stroke-width:1.0;"/><polygon fill="#A80036" points="40.2105,145.4642,35.2242,153.9575,39.6485,150.4325,43.1734,154.8568,40.2105,145.4642" style="stroke:#A80036;stroke-width:1.0;"/><text fill="#000000" font-family="sans-serif" font-size="13" lengthAdjust="spacing" textLength="324" x="35.8812" y="213.0669">loses focus / user leaving activity / particual visible</text><!--MD5=[13401fc9d4b39726bd1bfb5bb2229645]
link onPause to onResume--><path d="M38.8103,123.9345 C38.7547,124.2005 38.699,124.4673 38.6432,124.7348 C38.4199,125.8049 38.1949,126.8865 37.9686,127.9781 C37.0631,132.3447 36.1355,136.8719 35.2102,141.463 C33.3597,150.645 31.5184,160.0823 29.8812,169 C27.3612,182.726 26.5852,186.149 24.8812,200 C23.0899,214.5613 21.8168,230.0709 20.9155,245.1804 C20.4648,252.7351 20.1071,260.1898 19.8239,267.3759 C19.7885,268.2741 19.7543,269.1682 19.7212,270.0577 C19.7046,270.5025 19.6884,270.9461 19.6724,271.3886 " fill="none" id="onPause-to-onResume" style="stroke:#A80036;stroke-width:1.0;"/><polygon fill="#A80036" points="19.6724,271.3886,23.9948,262.5389,19.8529,266.3918,16,262.25,19.6724,271.3886" style="stroke:#A80036;stroke-width:1.0;"/><!--MD5=[6cdd13a94ef142e4920ad086a146ba75]
link GMN34042 to onPause--><path d="M82.3399,85.5 C70.6961,85.5 59.0523,85.5 47.4085,85.5 " fill="none" id="GMN34042-onPause" style="stroke:#A80036;stroke-width:1.0;stroke-dasharray:7.0,7.0;"/><!--MD5=[a904d8f264e0cd932b076c19e95c4d96]
link onPause to onStop--><path d="M54.3833,145.2064 C54.4386,145.3233 54.4942,145.4401 54.5502,145.5566 C54.6622,145.7897 54.7757,146.022 54.8905,146.2535 C55.8095,148.1052 56.8206,149.9038 57.9324,151.6314 C60.1561,155.0865 62.7828,158.2574 65.8812,161 C167.5512,250.993 256.5992,123.657 368.8812,200 C405.2832,224.751 425.5592,273.571 435.3372,304.952 " fill="none" id="onPause-to-onStop" style="stroke:#A80036;stroke-width:1.0;"/><polygon fill="#A80036" points="436.8172,309.832,438.0322,300.0584,435.3657,305.0473,430.3767,302.3808,436.8172,309.832" style="stroke:#A80036;stroke-width:1.0;"/><text fill="#000000" font-family="sans-serif" font-size="13" lengthAdjust="spacing" textLength="109" x="387.8812" y="213.0669">no visible to user</text><!--MD5=[1378235e12bfe33048717e1f1ccadb95]
link onStop to onRestart--><path d="M418.9802,360.188 C406.3962,371.903 390.2142,385.463 373.8812,395 C330.1702,420.521 311.0832,409.339 266.8812,434 C219.9042,460.21 200.4832,463.439 171.8812,509 C166.8687,516.9848 163.1697,526.1169 160.442,535.3723 C160.101,536.5292 159.7753,537.688 159.464,538.8468 C159.3862,539.1365 159.3092,539.4262 159.2332,539.7159 " fill="none" id="onStop-to-onRestart" style="stroke:#A80036;stroke-width:1.0;"/><polygon fill="#A80036" points="159.2332,539.7159,165.3868,532.026,160.5025,534.8796,157.6489,529.9953,159.2332,539.7159" style="stroke:#A80036;stroke-width:1.0;"/><text fill="#000000" font-family="sans-serif" font-size="13" lengthAdjust="spacing" textLength="156" x="267.8812" y="448.5669">user navigate to activity</text><!--MD5=[d7bf898a4594aaef9dac3f54fe87ffe0]
link onStop to onCreate--><path d="M440.9052,360.319 C438.3322,391.9915 433.6835,449.2165 429.6256,499.1681 C429.1184,505.4121 428.6204,511.5424 428.1368,517.4949 C428.0159,518.9831 427.8959,520.4601 427.7769,521.925 C427.7174,522.6575 427.6582,523.3869 427.5992,524.1132 " fill="none" id="onStop-to-onCreate" style="stroke:#A80036;stroke-width:1.0;"/><polygon fill="#A80036" points="427.5992,524.1132,432.3148,515.4666,428.004,519.1296,424.341,514.8188,427.5992,524.1132" style="stroke:#A80036;stroke-width:1.0;"/><text fill="#000000" font-family="sans-serif" font-size="13" lengthAdjust="spacing" textLength="114" x="434.8812" y="448.5669">app process killed</text><!--MD5=[ea10c0f969cae1e2b41dcdf7729df7e7]
link onRestart to GMN34051--><path d="M153.3222,595.5 C164.9012,595.5 176.4792,595.5 188.0572,595.5 " fill="none" id="onRestart-GMN34051" style="stroke:#A80036;stroke-width:1.0;stroke-dasharray:7.0,7.0;"/><!--MD5=[2988cc45c73cfc47cc1329e6245556af]
link onRestart to onStart--><path d="M159.1142,632.9116 C159.2313,633.5954 159.3496,634.2863 159.4691,634.9842 C163.2923,657.3172 168.3378,686.7896 173.3831,716.2611 C175.9058,730.9968 178.4284,745.7324 180.7982,759.5752 C181.9831,766.4966 183.1297,773.1948 184.2191,779.5582 C184.7638,782.7399 185.2942,785.838 185.8078,788.8384 " fill="none" id="onRestart-to-onStart" style="stroke:#A80036;stroke-width:1.0;"/><polygon fill="#A80036" points="185.8078,788.8384,188.2318,779.2924,184.9641,783.91,180.3465,780.6424,185.8078,788.8384" style="stroke:#A80036;stroke-width:1.0;"/><!--MD5=[c37275e434a5850834502e9c3473a52c]
link onStop to onDestroy--><path d="M479.3962,346.522 C548.3222,367.828 699.5752,421.613 798.8812,509 C815.3992,523.5355 829.054,544.0498 838.7439,561.3405 C841.1663,565.6632 843.341,569.7844 845.2506,573.5604 C845.728,574.5044 846.1889,575.4268 846.6329,576.3254 C846.6884,576.4377 846.7437,576.5496 846.7986,576.6612 " fill="none" id="onStop-to-onDestroy" style="stroke:#A80036;stroke-width:1.0;"/><polygon fill="#A80036" points="846.7986,576.6612,846.4089,566.8201,844.5887,572.1761,839.2327,570.3559,846.7986,576.6612" style="stroke:#A80036;stroke-width:1.0;"/><!--MD5=[2283f9796f42c3177337c67bc2f649b2]
link onDestroy to GMN34057--><path d="M855.3112,595.5 C866.7242,595.5 878.1382,595.5 889.5512,595.5 " fill="none" id="onDestroy-GMN34057" style="stroke:#A80036;stroke-width:1.0;stroke-dasharray:7.0,7.0;"/><!--MD5=[a253dc8889530fcd4536c8dec5a327c0]
link onDestroy to *end--><path d="M854.8812,639.8278 C854.8812,644.8189 854.8812,650.1143 854.8812,655.6438 C854.8812,666.7028 854.8812,678.6983 854.8812,691.0694 C854.8812,740.5535 854.8812,796.0459 854.8812,821.6448 " fill="none" id="onDestroy-to-*end" style="stroke:#A80036;stroke-width:1.0;"/><polygon fill="#A80036" points="854.8812,826.7512,858.8812,817.7512,854.8812,821.7512,850.8812,817.7512,854.8812,826.7512" style="stroke:#A80036;stroke-width:1.0;"/><text fill="#000000" font-family="sans-serif" font-size="13" lengthAdjust="spacing" textLength="115" x="855.8812" y="715.0669">Activity shutdown</text><!--MD5=[a74ae577510a5bbed57169f7e93f6e2b]
@startuml
[*] - -> onCreate: Activity launched

state onCreate #green {
note right of onCreate
 - must call setContentView 
 to define activity's user interface
 - restore previous app state from saved bundle
end note
}
onCreate - - -> onStart : Started state
onCreate - - -> onStart : Visible to the user

state onStart {
note right of onStart
 - preparations for become
 - to foreground and interactive
end note
}

onStart - - -> onResume

state onResume {
note left of onResume
 - call just before activity interracts with user
 - activity now on top of activitys stack
end note
}


onResume - - -> onPause: loses focus / user leaving activity / particual visible

state onPause {
note left of onPause
 - can update UI
 - not use to save user data
 - dont network call
 - dont database transaction
end note
}
onPause - - -> onResume

onPause - - -> onStop: no visible to user

onStop - - -> onRestart: user navigate to activity

onStop - - -> onCreate: app process killed
state onRestart {
note right of onRestart: restore activity state
}


onRestart - - -> onStart

onStop - - -> onDestroy

state onDestroy #red{
note right of onDestroy
 - call before destroy
 - release resources
end note
}

onDestroy - - -> [*]: Activity shutdown
@enduml

PlantUML version 1.2021.16beta3(Unknown compile time)
(GPL source distribution)
Java Runtime: Java(TM) SE Runtime Environment
JVM: Java HotSpot(TM) 64-Bit Server VM
Default Encoding: UTF-8
Language: en
Country: US
--></g></svg>